<?xml-stylesheet type="text/css" href="/css/themes/hds-lights-on/hds-lights-on-svg.css" ?><svg viewBox="0 0 234 234" preserveAspectRatio="xMinYMin meet" style="background-color:#ffffff00" version="1.1"	xmlns="http://www.w3.org/2000/svg" xmlns:xlink="http://www.w3.org/1999/xlink" xml:space="preserve"	x="0px" y="0px" width="234px" height="234px">	<g>		<g class="background">			<path class="circle" d="M 73.3 117.0006 C 73.3 92.8652 92.8649 73.3 117 73.3 C 141.1351 73.3 160.7 92.8652 160.7 117.0006 C 160.7 141.1354 141.1351 160.7 117 160.7 C 92.8649 160.7 73.3 141.1354 73.3 117.0006 ZM 2 117 C 2 53.4861 53.4864 2 117 2 C 180.5136 2 232 53.4861 232 117 C 232 180.5139 180.5136 232 117 232 C 53.4864 232 2 180.5139 2 117 Z" fill-rule="evenodd" stroke-width="1"/>			<path class="inner-circle" d="M 82.5 117 C 82.5 97.9458 97.9458 82.5 117 82.5 C 136.0542 82.5 151.5 97.9458 151.5 117 C 151.5 136.0542 136.0542 151.5 117 151.5 C 97.9458 151.5 82.5 136.0542 82.5 117 Z" stroke-width="1"/>			<path class="line" d="M 62.95 118.15 L 12.35 118.15 " stroke-width="1"/>			<path class="line" d="M 221.65 118.15 L 171.05 118.15 " stroke-width="1"/>			<path class="center" d="M 105.0056 118.593 C 104.9656 118.2009 105.141 117.9741 105.5332 117.916 L 107.9161 117.6157 C 108.036 117.5942 108.1868 117.6372 108.3683 117.7354 C 108.4898 117.8149 108.5652 117.9497 108.5944 118.1396 C 108.736 119.1628 109.0529 120.1187 109.545 121.0103 C 110.0374 121.9019 110.6558 122.6675 111.4003 123.314 C 112.1433 123.9604 112.994 124.469 113.9493 124.8398 C 114.9045 125.2104 115.9091 125.3943 116.9659 125.3943 C 118.1212 125.3943 119.2118 125.1736 120.2379 124.7324 C 121.2639 124.2942 122.1577 123.6938 122.9222 122.9312 C 123.6866 122.1714 124.2897 121.2861 124.7328 120.2717 C 125.1742 119.2639 125.3958 118.1704 125.3958 117 C 125.3958 115.8296 125.1742 114.739 124.7328 113.7251 C 124.2897 112.7139 123.6866 111.8286 122.9222 111.0688 C 122.1577 110.3062 121.2609 109.7056 120.2302 109.2646 C 119.1995 108.8262 118.1119 108.6057 116.9659 108.6057 C 116.0198 108.6057 115.1076 108.7588 114.2277 109.0623 C 113.3478 109.3687 112.5509 109.8127 111.8372 110.3918 L 114.2354 112.7783 C 114.5877 113.1306 114.7076 113.4219 114.5969 113.6577 C 114.4861 113.8936 114.1954 114.01 113.7231 114.01 L 106.7392 114.01 C 106.5792 114.01 106.4301 113.9795 106.2947 113.9209 C 106.1593 113.863 106.0363 113.7803 105.9254 113.6792 C 105.6732 113.4309 105.5532 113.1553 105.564 112.855 L 105.564 105.9009 C 105.564 105.4321 105.687 105.144 105.9331 105.0398 C 106.1793 104.9326 106.4777 105.0552 106.83 105.4072 L 109.2728 107.8398 C 110.3696 106.9177 111.568 106.2163 112.871 105.729 C 114.1723 105.2419 115.5368 105 116.9659 105 C 118.6334 105 120.1978 105.3125 121.6561 105.9404 C 123.1129 106.5654 124.3882 107.4204 125.4789 108.5078 C 126.5695 109.5923 127.4294 110.8667 128.0585 112.322 C 128.6862 113.7771 129 115.3396 129 117 C 129 118.6604 128.6862 120.2229 128.0585 121.678 C 127.4294 123.1333 126.5695 124.4077 125.4789 125.4922 C 124.3882 126.5798 123.1113 127.4346 121.6484 128.0596 C 120.1855 128.6843 118.6241 129 116.9659 129 C 115.4568 129 114.0246 128.7363 112.6663 128.2126 C 111.3095 127.6855 110.0958 126.9565 109.0251 126.0254 C 107.9545 125.094 107.0669 123.9941 106.3623 122.7227 C 105.6594 121.4514 105.2055 120.0728 105.0056 118.593 L 105.0056 118.593 Z"/>		</g>		<g class="buttons">			<g class="button down">				<path class="border" d="M 232 118.3 L 231.977 116 L 160.6426 116 C 160.682 116.7614 160.7 117.5279 160.7 118.2994 C 160.7 142.4348 141.1351 162 117 162 C 92.8649 162 73.3 142.4348 73.3 118.2994 C 73.3 117.5279 73.3181 116.7614 73.3576 116 L 2.023 116 L 2 118.3 C 2 181.8139 53.4864 233.3 117 233.3 C 180.5136 233.3 232 181.8139 232 118.3 Z" stroke-width="1.5"/>				<path class="arrow" d="M 125 191 L 117 199 L 109 191 " stroke-width="3"/>			</g>			<g class="button up">				<path class="border" d="M 2 117 L 2.023 119.3 L 73.3574 119.3 C 73.318 118.5386 73.3 117.7721 73.3 117.0006 C 73.3 92.8652 92.8649 73.3 117 73.3 C 141.1351 73.3 160.7 92.8652 160.7 117.0006 C 160.7 117.7721 160.6819 118.5386 160.6424 119.3 L 231.977 119.3 L 232 117 C 232 53.4861 180.5136 2 117 2 C 53.4864 2 2 53.4861 2 117 Z" stroke-width="1.5"/>				<path class="arrow" d="M 109 43 L 117 35 L 125 43 " stroke-width="3"/>			</g>		</g>	</g></svg>