<?xml-stylesheet type="text/css" href="/css/themes/hds-lights-on/hds-lights-on-svg.css" ?><svg viewBox="0 0 104 104" preserveAspectRatio="xMinYMin meet" style="background-color:#ffffff00" version="1.1"	xmlns="http://www.w3.org/2000/svg" xmlns:xlink="http://www.w3.org/1999/xlink" xml:space="preserve"	x="0px" y="0px" width="104px" height="104px">	<g>		<g class="background">			<path class="circle" d="M 33 52.0002 C 33 41.5066 41.5065 33 52 33 C 62.4935 33 71 41.5066 71 52.0002 C 71 62.4937 62.4935 71 52 71 C 41.5065 71 33 62.4937 33 52.0002 ZM 2 52 C 2 24.3853 24.3854 2 52 2 C 79.6146 2 102 24.3853 102 52 C 102 79.6147 79.6146 102 52 102 C 24.3854 102 2 79.6147 2 52 Z" fill-rule="evenodd" stroke-width="1"/>			<path class="inner-circle" d="M 37 52 C 37 43.7156 43.7156 37 52 37 C 60.2844 37 67 43.7156 67 52 C 67 60.2844 60.2844 67 52 67 C 43.7156 67 37 60.2844 37 52 Z" stroke-width="1"/>			<path class="center" d="M 46.0028 52.7966 C 45.9828 52.6006 46.0705 52.4873 46.2666 52.458 L 47.458 52.3079 C 47.5179 52.2971 47.5934 52.3188 47.6841 52.3677 C 47.7449 52.4075 47.7825 52.4749 47.7972 52.5698 C 47.868 53.0815 48.0264 53.5596 48.2725 54.0054 C 48.5187 54.4509 48.8279 54.8337 49.2001 55.157 C 49.5717 55.4805 49.9969 55.7346 50.4746 55.9202 C 50.9523 56.1055 51.4545 56.1973 51.9829 56.1973 C 52.5605 56.1973 53.1059 56.0869 53.6189 55.8662 C 54.132 55.6472 54.5789 55.3472 54.9611 54.9656 C 55.3433 54.5857 55.6449 54.1431 55.8665 53.6357 C 56.0871 53.1321 56.1979 52.5852 56.1979 52.0002 C 56.1979 51.415 56.0871 50.8696 55.8665 50.3628 C 55.6449 49.8572 55.3433 49.4143 54.9611 49.0344 C 54.5789 48.6531 54.1304 48.3528 53.6151 48.1323 C 53.0997 47.9131 52.556 47.803 51.9829 47.803 C 51.5099 47.803 51.0538 47.8794 50.6138 48.0313 C 50.1738 48.1843 49.7754 48.4065 49.4186 48.696 L 50.6177 49.8894 C 50.7938 50.0654 50.8538 50.2112 50.7985 50.3291 C 50.743 50.447 50.5977 50.5051 50.3616 50.5051 L 46.8696 50.5051 C 46.7896 50.5051 46.715 50.49 46.6473 50.4604 C 46.5797 50.4316 46.5181 50.3901 46.4627 50.3396 C 46.3365 50.2156 46.2766 50.0779 46.282 49.9275 L 46.282 46.4507 C 46.282 46.2161 46.3435 46.0723 46.4666 46.02 C 46.5896 45.9663 46.7388 46.0278 46.9149 46.2039 L 48.1364 47.4202 C 48.6848 46.959 49.2839 46.6084 49.9354 46.3647 C 50.5862 46.1211 51.2684 46 51.9829 46 C 52.8167 46 53.5989 46.1565 54.3281 46.4702 C 55.0565 46.7827 55.6941 47.2104 56.2395 47.7539 C 56.7848 48.2964 57.2147 48.9333 57.5293 49.6611 C 57.8431 50.3887 58 51.1699 58 52.0002 C 58 52.8303 57.8431 53.6113 57.5293 54.3391 C 57.2147 55.0667 56.7848 55.7039 56.2395 56.2461 C 55.6941 56.79 55.0557 57.2173 54.3242 57.53 C 53.5928 57.8423 52.8121 58 51.9829 58 C 51.2284 58 50.5123 57.8684 49.8331 57.6064 C 49.1547 57.3428 48.5479 56.9783 48.0126 56.5127 C 47.4772 56.0471 47.0334 55.4973 46.6812 54.8613 C 46.3297 54.2258 46.1028 53.5364 46.0028 52.7966 L 46.0028 52.7966 Z"/>			<path class="line" d="M 51.5 28.5 L 51.5 6.5 " stroke-width="1"/>			<path class="line" d="M 51.5 97.5 L 51.5 75.5 " stroke-width="1"/>		</g>		<g class="buttons">			<g class="button left">				<path class="border" d="M 52 102 L 53 101.99 L 53 70.975 C 52.6689 70.9922 52.3357 71 52.0002 71 C 41.5066 71 33 62.4935 33 52 C 33 41.5065 41.5066 33 52.0002 33 C 52.3357 33 52.6689 33.0079 53 33.025 L 53 2.01 L 52 2 C 24.3853 2 2 24.3854 2 52 C 2 79.6146 24.3853 102 52 102 Z" stroke-width="1.5"/>				<path class="arrow" d="M 19 56 L 15 52 L 19 48 " stroke-width="2"/>			</g>			<g class="button right">				<path class="border" d="M 52 2 L 51 2.01 L 51 33.025 C 51.3311 33.0078 51.6643 33 51.9998 33 C 62.4934 33 71 41.5065 71 52 C 71 62.4935 62.4934 71 51.9998 71 C 51.6643 71 51.3311 70.9921 51 70.975 L 51 101.99 L 52 102 C 79.6147 102 102 79.6146 102 52 C 102 24.3854 79.6147 2 52 2 Z" stroke-width="1.5"/>				<path class="arrow" d="M 84 48 L 88 52 L 84 56 " stroke-width="2"/>			</g>		</g>	</g></svg>